<svg width="200" height="30" viewBox="0 0 200 30" fill="none" xmlns="http://www.w3.org/2000/svg">
<path d="M14.4273 17.7413V22.7452H0V0H5.25466V17.7413H14.4273Z" fill="white"/>
<path d="M22.0327 18.3783C23.5077 18.3783 24.7983 17.7869 25.5358 17.0135L29.9148 19.5155C28.117 21.972 25.4437 23.2457 21.9866 23.2457C15.764 23.2457 11.8922 19.1061 11.8922 13.7383C11.8922 8.37034 15.8101 4.23071 21.5718 4.23071C26.8726 4.23071 30.8366 8.27936 30.8366 13.7383C30.8366 14.5116 30.7444 15.194 30.6062 15.8762H17.7C18.3914 17.7414 20.0507 18.3783 22.0327 18.3783ZM25.3976 11.8276C24.7983 9.73505 23.1851 8.96172 21.5257 8.96172C19.4515 8.96172 18.0687 9.96251 17.5616 11.8276H25.3976Z" fill="white"/>
<path d="M57.4787 11.6457V22.6999H51.9935V12.146C51.9935 10.3264 51.1178 9.18917 49.3662 9.18917C47.5226 9.18917 46.5084 10.4629 46.5084 12.5555V22.6999H41.0694V12.146C41.0694 10.3264 40.1936 9.18917 38.4421 9.18917C36.5983 9.18917 35.5843 10.4629 35.5843 12.5555V22.6999H30.0992V4.7311H35.5843V6.36876C36.414 5.14052 38.0272 4.23071 40.4702 4.23071C42.6366 4.23071 44.2037 5.09503 45.264 6.59621C46.278 5.14052 47.9834 4.23071 50.5647 4.23071C54.7131 4.23071 57.4787 7.14209 57.4787 11.6457Z" fill="white"/>
<path d="M57.4326 13.7383C57.4326 8.37034 61.7194 4.23071 67.1123 4.23071C72.4591 4.23071 76.7919 8.37034 76.7919 13.7383C76.7919 19.1061 72.5052 23.2457 67.1123 23.2457C61.7194 23.2457 57.4326 19.0606 57.4326 13.7383ZM71.3067 13.7383C71.3067 11.1907 69.4631 9.5076 67.1123 9.5076C64.7615 9.5076 62.9177 11.1907 62.9177 13.7383C62.9177 16.2857 64.7615 17.9688 67.1123 17.9688C69.4631 17.9688 71.3067 16.2857 71.3067 13.7383Z" fill="white"/>
<path d="M93.5239 11.6457V22.6999H88.0387V12.4645C88.0387 10.2355 86.6099 9.18917 84.8583 9.18917C82.8302 9.18917 81.4474 10.3264 81.4474 12.9193V22.7454H75.9623V4.7311H81.4474V6.41425C82.4153 5.09503 84.259 4.23071 86.656 4.23071C90.3896 4.23071 93.5239 6.82366 93.5239 11.6457Z" fill="white"/>
<path d="M103.664 18.3783C105.139 18.3783 106.43 17.7869 107.167 17.0135L111.547 19.5155C109.749 21.972 107.075 23.2457 103.618 23.2457C97.3958 23.2457 93.5238 19.1061 93.5238 13.7383C93.5238 8.37034 97.4418 4.23071 103.203 4.23071C108.504 4.23071 112.468 8.27936 112.468 13.7383C112.468 14.5116 112.376 15.194 112.238 15.8762H99.2855C99.977 17.7414 101.682 18.3783 103.664 18.3783ZM107.029 11.8276C106.43 9.73505 104.817 8.96172 103.157 8.96172C101.083 8.96172 99.7004 9.96251 99.1934 11.8276H107.029Z" fill="white"/>
<path d="M145.933 8.87066C145.563 8.87066 145.333 9.05261 145.195 9.41654L141.784 20.0158C141.323 21.4715 140.539 22.5633 139.525 23.2457C138.465 23.928 137.128 24.2919 135.423 24.2919C134.409 24.2919 133.533 24.2009 132.796 23.9735C132.058 23.7461 131.413 23.4731 130.905 23.0637C130.399 22.6997 129.984 22.2448 129.661 21.699C129.338 21.1531 129.154 20.6072 129.062 20.0158L126.297 5.64083C126.25 5.27691 126.204 4.95848 126.204 4.73103C126.204 4.73103 129.477 4.73103 130.261 4.73103C131.228 4.73103 132.242 4.59455 132.703 6.77809L134.777 18.5602C134.824 19.015 135.1 19.1969 135.561 19.1969C135.746 19.1969 135.93 19.1515 136.069 19.0605C136.207 18.9695 136.299 18.8331 136.345 18.6057L139.71 8.32477C140.171 6.96005 140.862 5.91377 141.83 5.27691C142.798 4.64004 144.135 4.27612 145.933 4.27612C147.684 4.27612 149.021 4.59455 149.942 5.23141C150.864 5.86829 151.51 6.86907 151.924 8.14281L155.197 18.5602C155.244 18.7876 155.382 18.924 155.474 19.015C155.612 19.106 155.75 19.1515 155.98 19.1515C156.396 19.1515 156.672 18.924 156.764 18.5146L159.023 6.82359C159.299 4.68553 160.866 4.68553 160.866 4.68553H165.569C165.569 4.86749 165.429 5.36789 165.384 5.59534L162.479 20.0158C162.203 21.2895 161.558 22.2904 160.544 23.1092C159.529 23.8825 158.009 24.2919 156.027 24.2919C152.754 24.2919 150.68 22.8817 149.804 20.0158L146.67 9.46203C146.532 9.05261 146.301 8.87066 145.933 8.87066Z" fill="#F26538"/>
<path d="M129.062 20.0157L126.297 5.64074C126.25 5.27683 126.204 4.95838 126.204 4.73093C126.204 4.73093 129.477 4.73093 130.261 4.73093C131.228 4.73093 132.242 4.59446 132.703 6.77801L134.777 18.56C134.87 18.9695 129.154 20.6071 129.062 20.0157Z" fill="url(#paint0_linear_14_44)"/>
<path d="M130.952 4.73105C127.91 5.09497 126.711 9.09813 126.711 9.09813L122.055 22.1994C120.027 27.9312 116.755 30.2058 111.685 29.9327V24.8834C114.22 24.8834 115.418 24.11 116.248 21.881L109.011 4.68556H115.05L119.105 15.6942L121.825 7.05107C121.825 7.05107 122.148 5.86831 122.655 5.32242C123.3 4.54908 124.499 4.68556 124.499 4.68556C124.499 4.68556 129.708 4.73105 130.952 4.73105Z" fill="white"/>
<path d="M200 4.77661L193.777 22.245C191.749 27.9767 188.477 30.2512 183.407 29.9783V24.9289C185.941 24.9289 187.14 24.1555 187.97 21.9265L180.687 4.77661H186.679L190.735 15.7853L194.146 4.77661H200Z" fill="#F26538"/>
<path d="M177.322 4.77651V6.45966C176.124 5.09494 174.326 4.27612 171.883 4.27612C167.089 4.27612 163.172 8.41575 163.172 13.7836C163.172 19.1515 167.089 23.2911 171.883 23.2911C174.326 23.2911 176.124 22.4723 177.322 21.1076V22.7452H182.808V4.77651H177.322ZM172.666 18.5602C169.901 18.5602 167.642 16.3311 167.642 13.6017C167.642 10.8722 169.901 8.6432 172.666 8.6432C175.433 8.6432 177.69 10.8722 177.69 13.6017C177.69 16.3311 175.433 18.5602 172.666 18.5602Z" fill="#F26538"/>
<defs>
<linearGradient id="paint0_linear_14_44" x1="128.241" y1="6.60028" x2="132.2" y2="16.886" gradientUnits="userSpaceOnUse">
<stop stop-color="#953D07"/>
<stop offset="1" stop-color="#F26636"/>
</linearGradient>
</defs>
</svg>
