<svg width="110" height="18" viewBox="0 0 110 18" fill="none" xmlns="http://www.w3.org/2000/svg">
<g clip-path="url(#clip0_8_1344)">
<mask id="mask0_8_1344" style="mask-type:luminance" maskUnits="userSpaceOnUse" x="-41" y="-45" width="201" height="113">
<path d="M-40.6645 -44.6217H159.367V67.8411H-40.6645V-44.6217Z" fill="white"/>
</mask>
<g mask="url(#mask0_8_1344)">
<path d="M18.678 10.2491C18.5344 10.6668 18.0674 11.1298 17.6486 11.27C15.791 11.8917 14.3227 10.3666 14.9612 8.51652C15.1266 8.03694 15.5096 7.65781 15.9908 7.49688C17.8471 6.87643 19.3147 8.39907 18.678 10.2491ZM17.2854 5.08684C16.3052 5.08684 15.4753 5.47885 14.8692 6.13137C14.8475 6.15465 14.8095 6.14015 14.8093 6.10838V5.98171C14.8093 5.64813 14.539 5.28877 14.2054 5.28877H13.1549C12.7722 5.28877 12.4619 5.59892 12.4619 5.98171V15.8522C12.4619 16.2346 12.7718 16.5444 13.1541 16.5444H14.1171C14.4995 16.5444 14.8095 16.2346 14.8093 15.8522V12.5694C15.4202 13.2615 16.2725 13.68 17.2854 13.68C19.5527 13.68 21.2409 11.8296 21.2409 9.38356C21.2409 6.9375 19.5527 5.08684 17.2854 5.08684Z" fill="black" fill-opacity="0.7"/>
<path d="M24.5414 8.58738H28.1977C28.2317 8.58738 28.257 8.55399 28.2472 8.52133C27.9874 7.65897 27.2468 7.12287 26.3687 7.12287C25.4752 7.12287 24.7802 7.65853 24.4927 8.52031C24.4819 8.55296 24.5071 8.58738 24.5414 8.58738ZM30.2778 10.1485H24.7051C24.5802 10.1485 24.4908 10.2748 24.5373 10.3909C24.8467 11.1666 25.5256 11.6448 26.4168 11.6448C27.057 11.6448 27.6123 11.4111 27.9445 11.0733C28.0949 10.9204 28.2935 10.8243 28.508 10.8243H29.7583C30.1865 10.8243 30.4571 11.2956 30.2307 11.6589C29.4591 12.8968 28.0569 13.6885 26.3687 13.6885C23.8442 13.6885 21.9468 11.8381 21.9468 9.39219C21.9468 6.94612 23.8442 5.09532 26.3687 5.09532C28.877 5.09532 30.7905 6.93001 30.7905 9.42441L30.7902 9.63659C30.7901 9.91936 30.5608 10.1485 30.2778 10.1485Z" fill="black" fill-opacity="0.7"/>
<path d="M59.0675 11.0012H60.3155C60.5345 11.0012 60.7449 11.1195 60.8341 11.3196C60.9653 11.6139 61.2728 11.822 61.6343 11.822C62.0846 11.822 62.4384 11.5482 62.4384 11.1941C62.4384 10.6794 61.7953 10.4382 61.1199 10.2932C59.8816 10.0036 58.5311 9.37608 58.5311 7.68636C58.5311 5.99678 59.9622 5.09532 61.586 5.09532C63.0438 5.09532 64.1956 5.87157 64.5556 6.94627C64.6752 7.30328 64.3955 7.67025 64.019 7.67025H62.7894C62.5928 7.67025 62.3409 7.53641 62.2519 7.36098C62.1328 7.12639 61.8801 6.96223 61.5699 6.96223C61.1839 6.96223 60.8786 7.21967 60.8786 7.52528C60.8786 7.99212 61.4415 8.24955 62.2453 8.44241C63.4835 8.74846 64.7859 9.32776 64.7859 10.9851C64.7859 12.7069 63.3548 13.6885 61.6182 13.6885C60.0817 13.6885 58.889 12.8551 58.5299 11.7236C58.4163 11.3656 58.6919 11.0012 59.0675 11.0012Z" fill="black" fill-opacity="0.7"/>
<path d="M97.0211 13.6885C98.94 13.6885 100.51 12.605 101.128 11.0109C101.274 10.6348 101 10.2286 100.597 10.2286H99.2165C99.0087 10.2286 98.8161 10.3355 98.7044 10.5108C98.3529 11.0619 97.7405 11.4196 97.0211 11.4196C95.8856 11.4196 94.8783 10.4924 94.8909 9.3919C94.8783 8.29143 95.8856 7.3642 97.0211 7.3642C97.7405 7.3642 98.3529 7.72194 98.7044 8.27298C98.8161 8.44826 99.0087 8.55516 99.2165 8.55516H100.597C101 8.55516 101.274 8.14895 101.128 7.7729C100.51 6.1788 98.94 5.09532 97.0211 5.09532C94.4965 5.09532 92.599 6.72559 92.599 9.3919C92.599 12.0834 94.4965 13.6885 97.0211 13.6885Z" fill="black" fill-opacity="0.7"/>
<path d="M45.726 13.6885C47.6449 13.6885 49.2152 12.605 49.8334 11.0109C49.9792 10.6348 49.7052 10.2286 49.3018 10.2286H47.9213C47.7135 10.2286 47.521 10.3355 47.4093 10.5108C47.0578 11.0619 46.4454 11.4196 45.726 11.4196C44.5905 11.4196 43.5832 10.4924 43.5958 9.3919C43.5832 8.29143 44.5905 7.3642 45.726 7.3642C46.4454 7.3642 47.0578 7.72194 47.4093 8.27298C47.521 8.44826 47.7135 8.55516 47.9213 8.55516H49.3018C49.7052 8.55516 49.9792 8.14895 49.8334 7.7729C49.2152 6.1788 47.6449 5.09532 45.726 5.09532C43.2014 5.09532 41.3039 6.72559 41.3039 9.3919C41.3039 12.0834 43.2014 13.6885 45.726 13.6885Z" fill="black" fill-opacity="0.7"/>
<path d="M7.20058 5.09532C6.80843 5.09532 6.42842 5.1454 6.06658 5.23912C5.65158 5.3466 5.48201 5.84404 5.74647 6.18158L6.48729 7.12668C6.61132 7.28498 6.80125 7.37723 7.00216 7.37694L7.20058 7.37679C8.34337 7.37679 9.26972 8.27898 9.26972 9.3919C9.26972 10.5048 8.34337 11.407 7.20058 11.407C6.2691 11.407 5.48157 10.8076 5.22223 9.98321C5.14843 9.74891 4.9257 9.59369 4.68012 9.59369H3.471C3.091 9.59369 2.80852 9.94689 2.89199 10.3175C3.32676 12.2455 5.09044 13.6885 7.20058 13.6885C9.63713 13.6885 11.6123 11.7649 11.6123 9.3919C11.6123 7.0189 9.63713 5.09532 7.20058 5.09532Z" fill="black" fill-opacity="0.7"/>
<path d="M74.1329 8.39773C73.9433 6.35524 72.2272 4.91035 70.2238 4.91035C69.3347 4.91035 68.57 5.23354 67.983 5.78033V2.77151V2.60252C67.983 2.26894 67.7126 1.90944 67.379 1.90944H66.3286C65.9458 1.90944 65.6355 2.21974 65.6355 2.60252V2.77151V12.6327V12.8033C65.6355 13.1856 65.9455 13.4956 66.3279 13.4956H67.2907C67.673 13.4956 67.983 13.1856 67.983 12.8033V12.6327V8.52835C68.3109 7.72808 68.9611 7.17264 69.806 7.17264C71.0537 7.17264 71.7784 8.36273 71.7784 9.77071V10.1816V12.2175V12.8033C71.7784 13.1856 72.0882 13.4956 72.4706 13.4956H73.4335C73.8159 13.4956 74.1259 13.1856 74.1259 12.8033V12.2055L74.1329 8.39773Z" fill="black" fill-opacity="0.7"/>
<path d="M53.9403 11.8861C53.3292 11.8861 52.8468 11.4842 52.8468 10.969C52.8468 10.4382 53.3292 10.0519 53.9403 10.0519H55.3069V10.9046C55.3069 11.4842 54.7442 11.8861 53.9403 11.8861ZM57.6545 7.22655C57.6545 6.15625 56.787 5.28876 55.7167 5.28876H54.8958H52.6338H52.5947C52.2611 5.28876 51.9016 5.53711 51.9016 5.84346V5.94186C51.8981 5.971 51.8926 5.99971 51.8926 6.02987V6.70362C51.8926 6.73379 51.8981 6.76249 51.9016 6.79163V6.80818C51.9016 7.15977 52.2119 7.44474 52.5947 7.44474H54.8958H55.3069V8.3462H53.3131C51.673 8.3462 50.4349 9.4884 50.4349 11.0173C50.4349 12.5302 51.673 13.6885 53.3131 13.6885C54.1135 13.6885 54.822 13.4252 55.333 12.9853C55.3333 12.985 55.3337 12.985 55.334 12.9847C55.3979 13.2191 55.5805 13.4023 55.8144 13.4675C55.8571 13.4855 55.9043 13.4956 55.9536 13.4956H55.9993H56.6591H56.9621C57.3445 13.4956 57.6545 13.1856 57.6545 12.8033V11.493V7.22655Z" fill="black" fill-opacity="0.7"/>
<path d="M88.035 11.8861C87.424 11.8861 86.9416 11.4842 86.9416 10.969C86.9416 10.4382 87.424 10.0519 88.035 10.0519H89.4017V10.9046C89.4017 11.4842 88.839 11.8861 88.035 11.8861ZM91.7493 7.22655C91.7493 6.15625 90.8818 5.28876 89.8115 5.28876H88.9905H86.7285H86.6894C86.3559 5.28876 85.9964 5.53711 85.9964 5.84346V5.94186C85.9929 5.971 85.9874 5.99971 85.9874 6.02987V6.70362C85.9874 6.73379 85.9929 6.76249 85.9964 6.79163V6.80818C85.9964 7.15977 86.3067 7.44474 86.6894 7.44474H88.9905H89.4017V8.3462H87.4079C85.7678 8.3462 84.5297 9.4884 84.5297 11.0173C84.5297 12.5302 85.7678 13.6885 87.4079 13.6885C88.2083 13.6885 88.9167 13.4252 89.4278 12.9853C89.4281 12.985 89.4285 12.985 89.4288 12.9847C89.4927 13.2191 89.6753 13.4023 89.9091 13.4675C89.9519 13.4855 89.999 13.4956 90.0484 13.4956H90.0941H90.7539H91.0569C91.4392 13.4956 91.7493 13.1856 91.7493 12.8033V11.493V7.22655Z" fill="black" fill-opacity="0.7"/>
<path d="M81.4866 9.96373C81.3432 10.587 80.7011 11.2238 80.0764 11.3604C78.4602 11.7139 77.2271 10.4342 77.6009 8.81801C77.7617 8.12288 78.3151 7.57506 79.0123 7.42321C80.6275 7.07147 81.8581 8.34854 81.4866 9.96373ZM80.0098 5.09532C79.0295 5.09532 78.1995 5.48718 77.5934 6.13984C77.5718 6.16298 77.5336 6.14863 77.5336 6.11685V2.60239C77.5336 2.26881 77.2631 1.90931 76.9295 1.90931H75.8791C75.4963 1.90931 75.186 2.21961 75.186 2.60239V3.08314V12.5779V12.8031C75.186 13.1855 75.496 13.4955 75.8784 13.4955H76.1038H76.705H76.8412C77.2235 13.4955 77.5336 13.1855 77.5336 12.8031V12.6668C77.5336 12.6352 77.5718 12.6207 77.5934 12.6439C78.1995 13.2965 79.0295 13.6885 80.0098 13.6885C82.2769 13.6885 83.9652 11.8381 83.9652 9.39204C83.9652 6.94598 82.2769 5.09532 80.0098 5.09532Z" fill="black" fill-opacity="0.7"/>
<path d="M108.133 2.60252C108.133 2.26894 107.863 1.90944 107.529 1.90944H106.479C106.096 1.90944 105.786 2.21974 105.786 2.60252V3.08327V12.578V12.8033C105.786 13.1856 106.096 13.4956 106.478 13.4956H106.703H107.305H107.441C107.823 13.4956 108.133 13.1856 108.133 12.8033V12.6669V2.60252Z" fill="black" fill-opacity="0.7"/>
<path d="M36.4663 4.91021C35.4864 4.91021 34.6569 5.30178 34.0508 5.95386C34.0292 5.97714 33.9933 5.96323 33.9902 5.9316C33.9608 5.62584 33.7197 5.28874 33.3862 5.28874H32.3358C31.953 5.28874 31.6427 5.5989 31.6427 5.98168V6.01038V12.2078V12.8033C31.6427 13.1856 31.9527 13.4956 32.335 13.4956H33.2979C33.6802 13.4956 33.9902 13.1856 33.9902 12.8033V12.2553V9.77071C33.9902 8.36258 34.8111 7.1725 36.0485 7.1725C37.2962 7.1725 38.0209 8.36258 38.0209 9.77071V10.1815V12.2175V12.8033C38.0209 13.1856 38.3307 13.4956 38.7132 13.4956H39.676C40.0584 13.4956 40.3684 13.1856 40.3684 12.8033V12.2092L40.3754 8.39758C40.1858 6.35509 38.4697 4.91021 36.4663 4.91021Z" fill="black" fill-opacity="0.7"/>
<path d="M106.614 8.81038L103.832 5.66421C103.689 5.43093 103.435 5.28874 103.162 5.28874H102.259C101.631 5.28874 101.256 5.98959 101.605 6.51236L103.945 9.35996L101.53 12.2468C101.168 12.7765 101.547 13.4956 102.189 13.4956H103.098C103.372 13.4956 103.626 13.3553 103.772 13.124L106.62 9.88332C106.89 9.5679 106.887 9.12288 106.614 8.81038Z" fill="black" fill-opacity="0.7"/>
</g>
</g>
<defs>
<clipPath id="clip0_8_1344">
<rect width="110" height="17.434" fill="white"/>
</clipPath>
</defs>
</svg>
