<svg xmlns="http://www.w3.org/2000/svg" width="248" height="36" viewBox="0 0 248 36" fill="none"><path d="M53.5707 29.13C53.6717 29.55 53.739 30.03 53.739 30.51C53.739 33.48 51.0806 35.88 47.7493 35.88C46.7061 35.88 45.3601 35.49 44.7881 35.22L33.4144 29.37C32.4049 28.86 31.1262 29.37 30.8907 30.3L29.8475 33.78C29.5783 34.59 28.8044 35.19 27.7949 35.19C26.4152 35.19 25.3721 33.96 25.7422 32.79L26.7854 29.31C27.4584 27.06 29.8139 25.35 32.6068 25.35C33.7172 25.35 34.7267 25.59 35.6353 26.07L46.908 31.86C48.2204 32.52 49.9365 31.44 49.4991 30.12L41.9278 5.03997C41.7259 4.31997 41.0193 3.86997 40.2453 3.86997C39.4714 3.86997 38.7647 4.34997 38.5628 5.03997L33.8518 20.73C33.5826 21.54 32.7414 22.14 31.7992 22.14C30.4196 22.14 29.3764 20.97 29.7466 19.74L34.4575 4.04997C35.1305 1.73997 37.5197 0.0899658 40.279 0.0899658C43.0719 0.0899658 45.3938 1.73997 46.1004 4.04997L53.5707 29.13Z" fill="#CF38EF"/><path d="M113.434 29.13C113.535 29.55 113.602 30.03 113.602 30.51C113.602 33.48 110.944 35.88 107.612 35.88C106.569 35.88 105.223 35.49 104.651 35.22L93.2776 29.37C92.2681 28.86 90.9894 29.37 90.7539 30.3L89.7107 33.78C89.4415 34.59 88.6676 35.19 87.6581 35.19C86.2784 35.19 85.2353 33.96 85.6054 32.79L86.6486 29.31C87.3216 27.06 89.6771 25.35 92.47 25.35C93.5805 25.35 94.59 25.59 95.4985 26.07L106.771 31.86C108.084 32.52 109.8 31.44 109.362 30.12L101.791 5.03997C101.589 4.31997 100.883 3.86997 100.109 3.86997C99.301 3.86997 98.628 4.34997 98.4261 5.03997L93.7151 20.73C93.4459 21.54 92.6046 22.14 91.6624 22.14C90.2828 22.14 89.2396 20.97 89.6098 19.74L94.3208 4.04997C94.9938 1.73997 97.3829 0.0899658 100.142 0.0899658C102.935 0.0899658 105.257 1.73997 105.964 4.04997L113.434 29.13Z" fill="#CF38EF"/><path d="M11.0045 35.58H2.22183C1.07773 35.58 0.034584 34.65 0.034584 33.63V2.30999C0.034584 1.28999 1.07773 0.359985 2.22183 0.359985H11.0045C17.0614 0.359985 21.4023 4.31998 21.4023 9.62998V9.68998C21.4023 13.47 19.3496 16.2 16.9605 17.43C19.3496 18.6 21.8734 21.36 21.8734 25.44V25.89C21.8397 31.23 16.9941 35.58 11.0045 35.58ZM17.0614 9.65999C17.0614 6.38999 14.5377 4.25999 11.0045 4.25999H4.37543V15.51H11.0045C14.4368 15.51 17.0614 13.08 17.0614 9.68998V9.65999ZM17.4989 25.44C17.4989 22.14 14.4704 19.38 10.9708 19.38H4.37543V31.71H11.0045C14.605 31.71 17.5326 29.1 17.5326 25.89V25.44H17.4989Z" fill="#CF38EF"/><path d="M70.7995 35.58H62.0169C60.8728 35.58 59.8296 34.65 59.8296 33.63V2.30999C59.8296 1.28999 60.8728 0.359985 62.0169 0.359985H70.7995C76.8565 0.359985 81.1973 4.31998 81.1973 9.62998V9.68998C81.1973 13.47 79.1447 16.2 76.7555 17.43C79.1447 18.6 81.6684 21.36 81.6684 25.44V25.89C81.6348 31.23 76.7892 35.58 70.7995 35.58ZM76.8565 9.65999C76.8565 6.38999 74.3327 4.25999 70.7995 4.25999H64.1705V15.51H70.7995C74.2318 15.51 76.8565 13.08 76.8565 9.68998V9.65999ZM77.2939 25.44C77.2939 22.14 74.2654 19.38 70.7658 19.38H64.1368V31.71H70.7658C74.3664 31.71 77.2939 29.1 77.2939 25.89V25.44Z" fill="#CF38EF"/><path d="M130.831 35.58H121.577C120.433 35.58 119.39 34.65 119.39 33.63V2.30999C119.39 1.28999 120.433 0.359985 121.577 0.359985H130.831C136.821 0.359985 141.633 4.67998 141.633 9.98998V25.89C141.633 31.23 136.821 35.58 130.831 35.58ZM137.359 10.05C137.359 6.83998 134.499 4.22998 130.898 4.22998H123.764V31.68H130.865C134.465 31.68 137.393 29.07 137.393 25.86V10.05H137.359Z" fill="#CF38EF"/><path d="M192.511 4.25999H186.219V33.96C186.219 35.22 185.142 35.91 184.032 35.91C182.955 35.91 181.844 35.25 181.844 33.96V4.25999H175.552C174.138 4.25999 173.365 3.29999 173.365 2.30999C173.365 1.34999 174.105 0.359985 175.552 0.359985H192.478C193.891 0.359985 194.665 1.31999 194.665 2.30999C194.665 3.26999 193.925 4.25999 192.511 4.25999Z" fill="#CF38EF"/><path d="M236.963 19.62H229.93V33.93C229.93 35.19 228.853 35.88 227.743 35.88C226.632 35.88 225.556 35.22 225.556 33.93V2.30999C225.556 1.28999 226.599 0.359985 227.743 0.359985H236.929C242.919 0.359985 247.798 4.58998 247.798 9.92998C247.832 15.3 242.986 19.62 236.963 19.62ZM236.963 4.25999H229.93V15.78H236.963C240.563 15.78 243.491 13.17 243.491 9.95999C243.491 6.77999 240.563 4.25999 236.963 4.25999Z" fill="#CF38EF"/><path d="M171.11 10.14V25.8C171.11 31.35 166.029 35.88 159.804 35.88C153.578 35.88 148.564 31.35 148.564 25.8V17.07C148.564 16.02 149.507 15.18 150.684 15.18C151.862 15.18 152.804 16.02 152.804 17.07V25.8C152.804 29.28 155.967 32.07 159.837 32.07C163.741 32.07 166.87 29.28 166.87 25.8V10.17C166.87 6.68999 163.741 3.9 159.837 3.9C155.967 3.9 152.804 6.68999 152.804 10.17C152.804 11.22 151.862 12.06 150.684 12.06C149.507 12.06 148.564 11.22 148.564 10.17C148.564 4.61999 153.578 0.0899919 159.804 0.0899919C166.029 0.0599919 171.11 4.58999 171.11 10.14Z" fill="#CF38EF"/><path d="M219.263 10.14V25.8C219.263 31.35 214.182 35.88 207.957 35.88C201.731 35.88 196.718 31.35 196.718 25.8V17.07C196.718 16.02 197.66 15.18 198.837 15.18C200.015 15.18 200.957 16.02 200.957 17.07V25.8C200.957 29.28 204.121 32.07 207.99 32.07C211.894 32.07 215.023 29.28 215.023 25.8V10.17C215.023 6.68999 211.894 3.9 207.99 3.9C204.121 3.9 200.957 6.68999 200.957 10.17C200.957 11.22 200.015 12.06 198.837 12.06C197.66 12.06 196.718 11.22 196.718 10.17C196.718 4.61999 201.731 0.0899919 207.957 0.0899919C214.182 0.0599919 219.263 4.58999 219.263 10.14Z" fill="#CF38EF"/></svg>
