<svg xmlns="http://www.w3.org/2000/svg" width="163.871" height="37.623" viewBox="0 0 163.871 37.623">
    <defs>
        <style>
            .cls-1{fill:#011e41}
        </style>
    </defs>
    <g id="Grupo_2003" data-name="Grupo 2003" transform="translate(-136.787 -95.858)">
        <path id="Caminho_78" d="M136.787 133.481h37.619V95.858h-37.619zM160.9 98.732a16.8 16.8 0 0 1 0 31.869zm-5.307-.852a18.91 18.91 0 0 1 3.545.371c0 8.524-8.243 15.539-16.751 15.539l-3.558-.006a16.981 16.981 0 0 1 16.763-15.9m-13.2 17.684c8.506 0 16.746 7.007 16.746 15.523a18.9 18.9 0 0 1-3.544.378 16.846 16.846 0 0 1-16.767-15.9z" class="cls-1" data-name="Caminho 78"/>
        <path id="Caminho_79" d="M196.66 119.888v-2.372h7.826v-3.023h-7.828v-4.4h8.327v-3.018h-11.533v12.676c0 3.2 1.366 5.4 4.57 5.847a.846.846 0 0 0 .187.029h.058a9.5 9.5 0 0 0 1.014.061h5.927v-3.012h-5.9a2.515 2.515 0 0 1-2.647-2.787" class="cls-1" data-name="Caminho 79" transform="translate(-9.659 -1.912)"/>
        <path id="Caminho_80" d="M210.369 115.869v9.821h3.206v-18.62h-3.206z" class="cls-1" data-name="Caminho 80" transform="translate(-12.543 -1.911)"/>
        <path id="Caminho_81" d="M223.859 112.773a6.789 6.789 0 0 0-7.084 7.137v.108c0 4.238 2.924 6.977 7.166 6.977a7.32 7.32 0 0 0 5.687-2.415l-1.928-1.88a4.659 4.659 0 0 1-3.648 1.555c-2.389 0-3.972-1.394-4.081-3.54h10.521c.053-.538.053-1.127.053-1.127a6.533 6.533 0 0 0-6.681-6.816m-3.811 5.689a3.613 3.613 0 0 1 3.811-2.951 3.219 3.219 0 0 1 3.406 2.951z" class="cls-1" data-name="Caminho 81" transform="translate(-13.635 -2.883)"/>
        <path id="Caminho_82" d="M242.716 115.632a4.523 4.523 0 0 1 3.434 1.477l1.987-2.067a7.166 7.166 0 1 0 0 9.66l-1.987-2.066a4.531 4.531 0 0 1-3.434 1.476 4.241 4.241 0 0 1 0-8.48" class="cls-1" data-name="Caminho 82" transform="translate(-16.804 -2.872)"/>
        <path id="Caminho_83" d="M256.372 119.892v-4.753h2.917v-2.913h-2.913v-5.152h-3.2v13.009h.008c.093 3.025 1.466 5.086 4.559 5.521a.814.814 0 0 0 .187.028h.058a8.9 8.9 0 0 0 1.014.061h.339l.01-3.011h-.324a2.517 2.517 0 0 1-2.647-2.788" class="cls-1" data-name="Caminho 83" transform="translate(-19.838 -1.912)"/>
        <path id="Caminho_84" d="M266.973 115.234v-2h-3.18V126.7h3.18v-7.08a3.373 3.373 0 0 1 3.632-3.606 6.423 6.423 0 0 1 1.336.134v-3.1a6.839 6.839 0 0 0-.961-.08 4.169 4.169 0 0 0-4.008 2.27" class="cls-1" data-name="Caminho 84" transform="translate(-21.649 -2.916)"/>
        <path id="Caminho_85" d="M281.556 112.8a7.135 7.135 0 1 0 7.345 7.132 7.163 7.163 0 0 0-7.345-7.132m0 11.354a4.221 4.221 0 1 1 4.166-4.222 4.119 4.119 0 0 1-4.166 4.222" class="cls-1" data-name="Caminho 85" transform="translate(-23.425 -2.889)"/>
        <path id="Caminho_86" d="M294.3 115.549v10.142h3.2v-18.618h-3.2z" class="cls-1" data-name="Caminho 86" transform="translate(-26.849 -1.912)"/>
        <path id="Caminho_87" d="M310.228 121.112a2.94 2.94 0 1 1-5.876.029v-7.854h-3.232v8.121c0 3.847 2.8 5.691 6.143 5.691 3.367 0 6.2-1.87 6.2-5.77v-8.042h-3.233z" class="cls-1" data-name="Caminho 87" transform="translate(-28.012 -2.971)"/>
        <path id="Caminho_88" d="M328.43 122.444l-2.022-2.825 2.5-3.411 2.143-2.921h-3.5l-2.911 4.034-2.939-4.034h-3.475l1.993 2.724 2.658 3.634-2.785 3.879-2.32 3.227h3.447l3.42-4.756 3.418 4.756h3.447z" class="cls-1" data-name="Caminho 88" transform="translate(-30.852 -2.971)"/>
    </g>
</svg>
