<svg width="516" height="111" viewBox="0 0 516 111" fill="none" xmlns="http://www.w3.org/2000/svg"><g clip-path="url(#clip0_107_2)"><path fill-rule="evenodd" clip-rule="evenodd" d="M380.3 70.1C381.9 69.6 383.4 69 384.7 68.2C386.2 67.5 387.6 66.6 388.9 65.6C395.7 60.3 399.9 52.2 399.9 43C399.9 40.9 399.7 38.8 399.2 36.9C398.7 35 398.2 33.1 397.3 31.3C393.1 22.1 384.2 15.5 373.6 14.7H361.9L328.9 14.6C327.2 14.6 325.6 15.3 324.5 16.4C323.4 17.5 322.7 19.1 322.7 20.9L322.8 98.6V98.7H322.9H335.2H335.3V98.6V71.6H361.9H366.7L382.9 98.6L383 98.7H383.1H396.9H397.2L397.1 98.5L380.3 70.1ZM361.9 60.2H335.3V25.9H361.9H371.5C376.2 25.9 380.5 27.8 383.6 31C386.7 34 388.7 38.3 388.7 43.1V43.2C388.7 44.4 388.5 45.6 388.3 46.8C388.1 47.9 387.6 49.1 387.2 50.2C384.7 55.6 379.5 59.6 373.3 60.3L361.9 60.2Z" fill="#1D1D1B"></path><path fill-rule="evenodd" clip-rule="evenodd" d="M302.2 98.6C299.8 92.8 297.3 87 294.9 81.2C286.1 60.4 277.4 39.7 269.5 18.8L269.4 18.7C269.3 18.4 269.1 18 269 17.7C268.8 17.5 268.5 17.1 268.3 16.9C267.2 15.5 265.5 14.8 263.6 14.8C263.3 14.8 263 14.8 262.7 14.9C262.4 14.9 262 15 261.7 15.1C261.4 15.2 261 15.3 260.8 15.4C259.4 16.1 258.3 17.3 257.8 18.8C249.9 39.7 241.3 60.5 232.6 81.3C230.1 87.1 227.6 92.9 225.3 98.7L225.2 98.9H225.5H237.7H237.8V98.8L243 86.3H263.8H284.7L289.8 98.8L289.9 98.9H290H302.2H302.4L302.2 98.6ZM263.7 76H247.1L263.6 35.2L280.4 76H263.7Z" fill="#1D1D1B"></path><path fill-rule="evenodd" clip-rule="evenodd" d="M168.5 56.1L203.5 56H203.6H204.2C204.5 56.1 205 56.1 205.3 56.3C205.8 56.4 206.1 56.5 206.4 56.7C208.1 57.7 209.2 59.5 209.2 61.7V62.2C209.1 62.7 209.1 63.1 208.9 63.4C208.8 63.9 208.7 64.2 208.4 64.5C207.4 66.2 205.6 67.3 203.6 67.3H203.5H168.5L168.6 98.7V99H168.5H156.2H156V98.9V67.4V56.3V21.2C156 19.4 156.8 17.8 157.9 16.7C159 15.6 160.6 14.9 162.3 14.9L223 14.8H223.2V15V26V26.1H223L168.6 26.2L168.5 56.1Z" fill="#1D1D1B"></path><path fill-rule="evenodd" clip-rule="evenodd" d="M432.6 13C433.5 13 434.4 13.2 435.2 13.6C435.4 13.7 435.7 13.8 435.9 14C437.1 14.7 438 15.7 438.6 17L470.9 70.6L502.9 16.9C503 16.6 503.2 16.2 503.5 16C503.6 15.7 503.8 15.4 504.1 15.1C505.3 13.9 507 12.9 509 12.9H509.1C509.7 12.9 510.1 13 510.6 13.1C511 13.2 511.5 13.3 512 13.6C514 14.6 515.5 16.8 515.7 19.1V19.3V19.5L515.8 98.3V98.4H515.6H503.4H503.2V98.3L503.1 36.5C499.5 42.6 496 48.8 492.5 55C487.2 64.4 481.9 73.8 476.4 82.9L476.3 83C476.2 83.3 476 83.6 475.9 83.8C475.7 84 475.4 84.1 475.2 84.4C474.1 85.3 472.7 85.9 471.1 85.9H470.9C470.6 85.9 470.2 85.9 470 85.8C469.7 85.8 469.3 85.7 469.1 85.6C467.8 85.2 466.6 84.3 465.8 83C459.9 73.5 454.3 63.6 448.7 53.8C445.4 48 442.3 42.3 439 36.7L439.1 98.5V98.6H438.9H426.7H426.5V98.5L426 19.7V19.5V19.3C426 18.9 426.1 18.4 426.2 18C426.3 17.5 426.5 17.1 426.8 16.8C427.8 14.5 430.1 13 432.6 13Z" fill="#1D1D1B"></path><path d="M82.1 65.3C82.1 60 80.0001 55 76.3001 51.2C72.5001 47.4 67.5001 45.4 62.2001 45.4C56.9001 45.4 51.9 47.5 48.1 51.3C44.3 55 42.3 60 42.3 65.4C42.3 70.7 44.4001 75.7 48.2001 79.4C52.0001 83.2 57 85.2 62.3 85.2C67.6 85.2 72.6001 83.1 76.3001 79.4C80.1001 75.6 82.1 70.6 82.1 65.3ZM47.2001 65.3C47.2001 61.3 48.8 57.5 51.6 54.7C54.4 51.9 58.2001 50.3 62.2001 50.3C66.2001 50.3 70.0001 51.8 72.8001 54.7C75.6001 57.5 77.2 61.3 77.2 65.3C77.2 69.3 75.7001 73 72.8001 75.9C70.0001 78.7 66.2001 80.3 62.2001 80.3C58.2001 80.3 54.4 78.8 51.6 75.9C48.8 73.1 47.3001 69.3 47.2001 65.3Z" fill="#1D1D1B"></path><path d="M121.1 102.9V101.9V97.7V97.1L120.5 97L120 96.9C119.1 96.7 118 96.4 116.7 96.1C115.8 95.9 114.9 95.7 114.1 95.5C113.4 95.3 112.7 95.2 112 95C110.5 94.6 108.9 94.3 107 94C105.3 93.7 103.5 93.5 101.8 93.4C92.6001 92.7 83.1001 93.7 74.4001 96.3C59.0001 101 47.3001 104 36.3001 104.7C25.8001 105.3 16.3001 103.8 4.2001 101.2L3.5001 101L2.6001 100.8V101.7V105.9V106.5L3.2001 106.6L3.7001 106.7C16.0001 109.5 25.7001 111 36.4001 110.4C47.4001 109.7 59.1001 106.7 74.4001 101.9H74.5001C77.8001 100.9 81.3001 100.1 85.0001 99.5C94.3001 98.1 103.7 98.5 112.1 100.6L112.8 100.8C114.3 101.2 115.7 101.5 116.8 101.8L117.6 102C118.2 102.1 118.8 102.3 119.5 102.5L120.2 102.7L121.1 102.9Z" fill="#1D1D1B"></path><path d="M18.6 100.2C18.5 99.8 18.4 99.3 18.3 98.8C18 97.3 17.8 95.8 17.8 94.3C17.8 93.6 17.8 92.9 17.9 92C18 91.2 18.1 90.5 18.2 89.8C18.4 89 18.6 88.2 18.8 87.6C19 86.9 19.3 86.2 19.6 85.5C19.8 84.9 20.1 84.3 20.5 83.8C20.8 83.2 21.1 82.6 21.5 82.1C21.8 81.7 22 81.4 22.2 81.1L22.4 80.8C22.7 80.3 23.1 79.9 23.4 79.6L25.1 77.6L25.9 76.7L24.7 76.4L22.1 75.7C20.9 75.4 19.9 75 18.9 74.6C18 74.1 17 73.7 16 73C14.9 72.4 13.9 71.7 13 70.9C12.1 70.1 11.2 69.2 10.4 68.3C9.5 67.2 8.7 66.1 8 65C7.3 63.9 6.7 62.6 6.3 61.4C5.8 60.2 5.5 58.9 5.2 57.6C5 56.3 4.9 55 4.9 53.6C4.9 52.2 5 50.7 5.3 49.1C5.6 47.6 6.1 46.2 6.6 44.8C7.2 43.4 7.9 42.1 8.7 40.9C9.6 39.6 10.5 38.5 11.4 37.5L11.5 37.4C12.6 36.3 13.7 35.3 14.9 34.5C16.1 33.7 17.4 33 18.9 32.4C20.1 31.9 21.6 31.4 23.2 31.1C24.7 30.8 26.2 30.6 27.6 30.6C27.8 30.6 28 30.6 28.3 30.6H28.5C28.7 30.6 28.9 30.6 29.1 30.6C29.6 30.6 30 30.7 30.4 30.7C30.9 30.7 31.3 30.8 31.8 30.9C32.3 31 32.7 31.1 33.2 31.2C33.4 31.2 33.5 31.3 33.6 31.3C33.8 31.3 34 31.4 34.1 31.4L35.2 31.8C35.4 31.8 35.5 31.9 35.7 32H35.8C35.9 32 35.9 32.1 36 32.1H36.1C36.2 32.1 36.3 32.2 36.3 32.2L38.7 33.2L39.8 33.7L40 32.6L39.8 29.9C39.8 29.9 39.8 29.9 39.8 29.8C39.8 29.6 39.8 29.4 39.8 29.2V28.3V28.2V28.1C39.8 28 39.8 28 39.8 27.8C39.8 26.3 39.9 24.8 40.2 23.3C40.5 21.7 41 20.3 41.5 19C42.1 17.5 42.8 16.2 43.6 15C44.4 13.7 45.4 12.6 46.5 11.5C47.6 10.4 48.8 9.4 50 8.6C51.2 7.8 52.5 7.1 53.9 6.5C55.3 5.9 56.8 5.5 58.2 5.2C59.6 4.9 61 4.8 62.2 4.8H62.6C64.1 4.8 65.7 4.9 67.1 5.2C68.5 5.5 69.8 5.9 71.4 6.5C72.8 7.1 74.1 7.8 75.4 8.6C76.6 9.4 77.8 10.4 78.9 11.5C79.9 12.5 80.9 13.7 81.8 15C82.6 16.3 83.3 17.6 83.9 19C84.4 20.2 84.9 21.7 85.2 23.3C85.5 24.8 85.7 26.3 85.7 27.7V27.8C85.7 27.8 85.7 27.8 85.7 27.9V28V28.1L85.6 31.4V32.5L86.6 32.1L89 31.2C89.1 31.2 89.1 31.2 89.1 31.1C89.3 31.1 89.4 31 89.5 31L89.7 30.9C89.8 30.9 89.9 30.8 90 30.8C90.2 30.7 90.4 30.7 90.5 30.6H90.7C90.8 30.6 90.9 30.5 91 30.5C91.2 30.4 91.5 30.4 91.8 30.3C92.2 30.2 92.7 30.1 93.1 30.1C93.4 30 93.6 30 93.9 30H94.3C94.4 30 94.6 30 94.8 30H94.9L95.6 29.9C96 29.9 96.4 29.9 96.8 29.9C98.3 29.9 99.8 30 101.3 30.4C102.8 30.7 104.2 31.1 105.6 31.7C107 32.3 108.3 33 109.5 33.8C110.7 34.6 111.9 35.5 113 36.7C114.1 37.8 115.1 39 115.9 40.2C116.8 41.4 117.5 42.7 118.1 44.2C118.7 45.7 119.1 47.1 119.4 48.5C119.7 49.9 119.8 51.4 119.8 53C119.8 54.4 119.7 55.7 119.5 57C119.2 58.5 118.8 59.7 118.4 60.9C118 62.1 117.4 63.3 116.7 64.6C116 65.8 115.2 66.9 114.3 67.9C113.5 68.9 112.6 69.8 111.7 70.5C110.7 71.3 109.7 72 108.7 72.6C107.8 73.1 106.8 73.6 105.7 74.1C104.8 74.5 103.8 74.8 102.6 75.2L99.8 75.9L98.6 76.2L99.5 77.1L101.4 79.2C101.7 79.5 101.9 79.8 102.2 80.1L102.5 80.5C102.8 80.9 103.1 81.3 103.4 81.7L103.5 81.8C103.9 82.4 104.3 82.9 104.6 83.5C104.9 84.1 105.3 84.7 105.5 85.3C105.9 86.1 106.1 86.8 106.4 87.6C106.7 88.3 106.9 89.1 107 89.8V90C107 90.2 107.1 90.4 107.1 90.5C108.9 90.8 110.5 91.1 111.8 91.5C111.9 91.5 112.1 91.6 112.2 91.6C112.1 90.6 111.9 89.7 111.8 88.9C111.6 88 111.4 87.1 111 86.1C110.7 85.2 110.3 84.2 109.9 83.4C109.5 82.6 109.1 81.9 108.8 81.2C108.4 80.5 107.9 79.7 107.5 79.1L107.3 78.9L107.5 78.8C109 78.1 110.1 77.6 111 77C112.2 76.3 113.4 75.5 114.6 74.4C115.8 73.4 116.9 72.4 117.8 71.2C118.8 70.2 119.7 68.8 120.7 67.2C121.6 65.7 122.2 64.3 122.8 62.8C123.3 61.4 123.8 59.9 124.1 58.1C124.4 56.6 124.5 55 124.5 53.1C124.5 51.2 124.3 49.5 124 47.7C123.6 45.8 123.1 44.1 122.4 42.5C121.8 40.9 120.9 39.3 119.8 37.7C118.8 36.2 117.6 34.8 116.3 33.5C114.9 32.1 113.5 31 112 30C110.6 29 108.9 28.2 107.2 27.5C105.3 26.8 103.6 26.3 102 25.9C100.2 25.6 98.4 25.4 96.6 25.4C96.1 25.4 95.6 25.4 95.1 25.5C94.7 25.5 94.1 25.5 93.5 25.6C93 25.6 92.6 25.7 92 25.8C91.5 25.9 91.1 26 90.6 26.1C90.5 26.1 90.4 26.1 90.3 26.2C90.2 25.1 90 24 89.8 22.9C89.5 21.2 88.9 19.3 88.2 17.7C87.5 16 86.6 14.4 85.6 12.9C84.5 11.2 83.3 9.9 82.1 8.7C80.8 7.4 79.4 6.2 77.9 5.2C76.3 4.1 74.7 3.3 73.1 2.6C71.7 1.4 70 0.9 68 0.5C66.3 0.2 64.5 0 62.6 0H62.2C60.7 0 59.1 0.2 57.2 0.5C55.3 0.9 53.6 1.5 52 2.1C50.4 2.7 48.8 3.6 47.2 4.7C45.8 5.7 44.3 6.8 43 8.2C41.7 9.5 40.6 10.9 39.6 12.4C38.6 14 37.8 15.5 37 17.2C36.3 19 35.8 20.7 35.4 22.4C35.1 23.7 34.9 25.1 34.9 26.5C34.8 26.5 34.6 26.4 34.5 26.4L34 26.3H33.8C33.5 26.2 33.1 26.1 32.8 26.1C32.2 26 31.7 25.9 31.1 25.8C30.5 25.7 29.9 25.7 29.4 25.7C28.9 25.6 28.3 25.6 27.7 25.6C25.8 25.6 24 25.8 22.4 26.2H22.3H22.2C20.5 26.5 18.8 27 17 27.8C15.3 28.5 13.7 29.4 12.2 30.4C10.6 31.6 9.2 32.7 8 33.9C6.6 35.4 5.5 36.7 4.6 38.1C3.5 39.8 2.7 41.4 2.1 42.9C1.4 44.5 0.9 46.2 0.5 48.1C0.2 50 0 51.8 0 53.5C0 55.1 0.1 56.8 0.5 58.3C0.7 59.7 1.1 61.2 1.7 63C2.2 64.4 2.9 65.8 3.8 67.4C4.6 68.8 5.5 70 6.7 71.4C7.6 72.5 8.6 73.5 9.9 74.6C11 75.5 12.2 76.4 13.5 77.2C14.7 77.9 16 78.5 17.1 79C17.2 79.1 17.4 79.1 17.5 79.2C17.5 79.3 17.4 79.4 17.4 79.4C17 80 16.6 80.6 16.3 81.4C15.9 82 15.6 82.7 15.3 83.6C15 84.3 14.8 85 14.6 85.6L14.3 86.4C14 87.3 13.8 88.1 13.7 88.9C13.5 89.7 13.4 90.6 13.3 91.6C13 92.6 13 93.5 13 94.4C13 96.1 13.2 97.8 13.5 99.5C15.2 99.7 17 100 18.6 100.2Z" fill="#1D1D1B"></path></g><defs><clipPath id="clip0_107_2"><rect width="515.6" height="110.6" fill="white"></rect></clipPath></defs></svg>
