<svg fill="currentColor" height="45" viewBox="0 0 69 28" width="107" xmlns="http://www.w3.org/2000/svg" title="ibyte"><path d="M19.0208 6.15248H10.5384C10.3592 6.15248 10.2168 6.01014 10.2168 5.8309V0.321827C10.2168 0.142584 10.0745 0.000244141 9.89525 0.000244141H6.81122C6.63198 0.000244141 6.48964 0.142584 6.48964 0.321827V17.1654C6.48964 17.3393 6.63198 17.4869 6.81122 17.4869H9.89525C10.0745 17.4869 10.2168 17.3446 10.2168 17.1654V9.49483C10.2168 9.32086 10.3592 9.17325 10.5384 9.17325H18.1141C18.9997 9.17325 19.722 9.89549 19.722 10.7812V12.1624V17.1179V18.4939C19.722 19.3795 18.9997 20.1018 18.1141 20.1018H18.0244H5.3351C4.44944 20.1018 3.72719 19.3795 3.72719 18.4939V6.43716C3.72719 6.26319 3.58485 6.11558 3.40561 6.11558H0.321582C0.14234 6.12085 0 6.26319 0 6.43716V18.6995C0 21.1456 1.98221 23.1278 4.42835 23.1278H18.0244H19.0208C21.4669 23.1278 23.4492 21.1456 23.4492 18.6995V17.1179V12.1624V10.5808C23.4492 8.1347 21.4669 6.15248 19.0208 6.15248Z" fill="currentColor"></path><path d="M45.5118 0H42.4278C42.2486 0 42.1062 0.14234 42.1062 0.321582V5.8412C42.1062 6.01517 41.9639 6.16278 41.7846 6.16278H40.6986C40.5457 6.16278 40.414 6.27349 40.3823 6.42638L39.9237 8.81452C39.8868 9.00958 40.0397 9.18882 40.24 9.18882H41.7846C41.9586 9.18882 42.1062 9.3048 42.1062 9.47877V18.7045C42.1062 21.1506 44.0884 23.1328 46.5346 23.1328H50.6202C50.7942 23.1328 50.9418 22.9905 50.9418 22.8113V20.4284C50.9418 20.2544 50.7995 20.1068 50.6202 20.1068H47.436C46.5504 20.1068 45.8281 19.3846 45.8281 18.4989V9.5104C45.8281 9.33116 45.9705 9.18882 46.1497 9.18882H50.6413C50.8206 9.18882 50.9629 9.04648 50.9629 8.86724V6.47909C50.9629 6.30512 50.8206 6.15751 50.6413 6.15751H46.1497C45.9705 6.15751 45.8281 6.01517 45.8281 5.83593V0.321582C45.8281 0.14234 45.6858 0 45.5118 0Z" fill="currentColor"></path><path d="M58.3224 12.7789V15.167C58.3224 15.3463 58.4648 15.4886 58.644 15.4886H68.6025C68.7818 15.4886 68.9241 15.3463 68.9241 15.167V12.6682V10.5436C68.9241 8.1186 66.963 6.15747 64.5379 6.15747H56.2295C53.7834 6.15747 51.8011 8.13968 51.8011 10.5858V18.7045C51.8011 21.1453 53.7834 23.1275 56.2242 23.1275H68.5814C68.7712 23.1275 68.9294 22.9746 68.9294 22.7796V20.4283C68.9294 20.2544 68.787 20.1068 68.6078 20.1068H57.1362C56.2506 20.1068 55.5283 19.3845 55.5283 18.4989V10.7967C55.5283 9.91102 56.2506 9.18878 57.1362 9.18878H63.5626C64.4483 9.18878 65.1705 9.91102 65.1705 10.7967V12.1357C65.1705 12.3097 65.0282 12.4573 64.849 12.4573H58.644C58.4648 12.4573 58.3224 12.5997 58.3224 12.7789Z" fill="currentColor"></path><path d="M38.6584 6.12065H35.5375C35.3846 6.12065 35.2528 6.22609 35.2264 6.37897L32.4745 19.9382C32.4429 20.0858 32.1582 20.1016 32.0053 20.1016H31.747C31.0775 20.1016 30.5292 19.469 30.3974 18.81L27.888 6.36843C27.8564 6.22082 27.7246 6.11011 27.5717 6.11011H24.4508C24.2504 6.11011 24.0976 6.29462 24.1397 6.49495L26.8653 19.9909C27.345 22.3632 28.5417 23.1171 30.9615 23.1171H31.4254C31.6257 23.1171 31.7786 23.3016 31.7417 23.5019L31.6416 24.0449C31.5098 24.5721 30.9351 24.9359 30.2656 24.9359H24.4982H24.4613C24.3084 24.9359 24.1714 25.0466 24.145 25.1994L24.1397 27.5929C24.1028 27.7879 24.2557 27.9672 24.456 27.9672H24.7987H25.9427H31.1724C33.5921 27.9672 34.7888 27.15 35.2686 24.7777L38.9747 6.50022C39.0116 6.30517 38.8587 6.12065 38.6584 6.12065Z" fill="currentColor"></path><path d="M3.40561 0H0.321582C0.14234 0 0 0.14234 0 0.321582V2.69918C0 2.87843 0.14234 3.02077 0.321582 3.02077H3.40561C3.57958 3.02077 3.72719 2.87843 3.72719 2.69918V0.321582C3.72192 0.14234 3.57958 0 3.40561 0Z" fill="currentColor"></path></svg>
