<svg width="120" height="50" viewBox="0 0 120 50" fill="none" xmlns="http://www.w3.org/2000/svg">
<g clip-path="url(#clip0_4_906)">
<path fill-rule="evenodd" clip-rule="evenodd" d="M51.1815 7.20084V42.771H58.1688V7.20084H51.1815ZM67.2245 42.771L79.5704 42.7033L73.0918 7.20084H65.1893L58.6435 42.771H65.1893L68.9539 15.2445L72.3456 36.4784L67.9706 36.5452L67.2245 42.771ZM91.3059 42.7033H98.3607V7.20084H92.1196V29.175L87.3034 7.20084H80.1466V42.7033H86.3876V20.191L91.3059 42.7033ZM37.9872 36.377C37.8521 36.377 37.7162 36.3769 37.5802 36.3426V14.0666C37.6821 14.0327 37.8175 14.0328 37.9538 14.0328H38.5297C39.1068 14.0328 39.5815 14.0666 40.0226 14.2008C40.2259 14.2346 40.4297 14.3024 40.5988 14.3691C41.1081 14.6375 41.5146 15.0089 41.8203 15.5132C42.0573 15.8832 42.227 16.5901 42.3294 17.6332C42.4304 18.676 42.4645 20.6618 42.4645 23.5893V25.2054C42.4645 28.7378 42.4304 31.1605 42.3294 32.3734C42.227 33.5844 42.0239 34.425 41.7859 34.8624C41.4469 35.4007 41.0399 35.7709 40.5311 36.0068C40.3616 36.1075 40.1924 36.1745 40.0226 36.2086C39.6159 36.3426 39.1411 36.377 38.5981 36.377H37.9872ZM44.7036 41.9296C46.0941 41.3574 47.1792 40.3811 48.0271 38.9686C48.6377 37.8911 49.1126 36.4784 49.3499 34.761C49.6213 33.0454 49.7566 29.8487 49.7566 25.1371C49.7566 20.4265 49.6213 17.2299 49.3499 15.5132C49.1126 13.7636 48.6377 12.3838 48.0271 11.2735C47.1792 9.89391 46.0941 8.91787 44.7036 8.34564C43.584 7.8748 42.0573 7.60572 40.0226 7.50417C39.4791 7.50417 38.9036 7.47054 38.2589 7.47054H30.3559V42.8037H38.2589C38.9036 42.8037 39.4791 42.771 40.0226 42.7374C42.0573 42.6698 43.584 42.3665 44.7036 41.9296ZM105.45 7.20084L98.9371 42.7033H105.45L109.35 15.2445L112.64 36.4784H108.332L107.586 42.7033H120L113.454 7.20084H105.45ZM7.05466 7.20084H0V42.771H7.05466V7.20084ZM20.8247 42.771H27.812V7.20084H21.7743V29.2427L16.8569 7.20084H9.59815V42.771H15.8391V20.191L20.8247 42.771ZM0 0V4.57641H120V0H0ZM0 50H120V45.4238H0V50Z" fill="#104D7F"/>
</g>
<defs>
<clipPath id="clip0_4_906">
<rect width="120" height="50" fill="white"/>
</clipPath>
</defs>
</svg>
