<?xml version="1.0" standalone="no"?>
<!DOCTYPE svg PUBLIC "-//W3C//DTD SVG 20010904//EN"
 "http://www.w3.org/TR/2001/REC-SVG-20010904/DTD/svg10.dtd">
<svg version="1.0" xmlns="http://www.w3.org/2000/svg"
 width="2363.000000pt" height="438.000000pt" viewBox="0 0 2363.000000 438.000000"
 preserveAspectRatio="xMidYMid meet">

<g transform="translate(0.000000,438.000000) scale(0.100000,-0.100000)"
fill="#000000" stroke="none">
<path d="M1335 2798 c-3 -7 -4 -301 -3 -653 l3 -640 563 -3 562 -2 0 85 0 85
-475 0 -475 0 0 570 0 570 -85 0 c-59 0 -87 -4 -90 -12z"/>
<path d="M2720 2155 l0 -655 605 0 605 0 0 85 0 85 -522 0 -521 0 6 122 c4 66
7 161 7 209 l0 89 478 2 477 3 3 83 3 82 -481 0 -480 0 0 190 0 190 510 0 510
0 0 85 0 85 -600 0 -600 0 0 -655z"/>
<path d="M4270 2155 l0 -655 90 0 90 0 2 516 3 517 499 -517 499 -516 78 0 79
0 0 655 0 655 -85 0 -85 0 -2 -521 -3 -521 -503 521 -503 521 -80 0 -79 0 0
-655z"/>
<path d="M6067 2803 c-4 -3 -7 -298 -7 -655 l0 -648 90 0 90 0 2 518 3 518
500 -518 500 -518 83 0 82 0 -2 653 -3 652 -85 0 -85 0 -5 -517 -5 -517 -344
357 c-190 196 -416 430 -504 520 l-159 162 -72 0 c-40 0 -76 -3 -79 -7z"/>
<path d="M7650 2803 c0 -5 162 -179 360 -388 l359 -380 1 -267 0 -268 85 0 85
0 0 264 0 264 360 382 c198 210 360 386 360 391 0 5 -49 9 -108 9 l-109 0
-294 -310 -294 -311 -35 40 c-19 22 -150 162 -290 311 l-255 270 -112 0 c-62
0 -113 -3 -113 -7z"/>
<path d="M10377 2803 c-4 -3 -7 -298 -7 -655 l0 -648 90 0 90 0 2 517 3 516
499 -516 499 -517 83 0 84 0 0 650 0 650 -90 0 -90 0 -2 -516 -3 -516 -503
521 -503 521 -73 0 c-40 0 -76 -3 -79 -7z"/>
<path d="M12122 2148 l3 -653 85 0 85 0 3 653 2 652 -90 0 -90 0 2 -652z"/>
<path d="M12700 2145 l0 -655 603 2 602 3 3 83 3 82 -521 0 -520 0 0 215 0
215 485 0 485 0 0 85 0 85 -485 0 -485 0 0 190 0 190 515 0 515 0 0 80 0 80
-600 0 -600 0 0 -655z"/>
<path d="M14250 2145 l0 -655 85 0 85 0 1 73 c1 39 5 255 8 478 l6 407 284
-480 284 -479 60 3 61 3 285 480 286 481 3 -483 2 -483 85 0 85 0 0 655 0 655
-87 0 -88 -1 -314 -529 c-172 -292 -316 -530 -320 -530 -3 0 -148 239 -321
530 l-315 530 -87 0 -88 0 0 -655z"/>
<path d="M16240 2145 l0 -655 605 0 605 0 0 85 0 85 -520 0 -520 0 0 215 0
215 485 0 486 0 -3 83 -3 82 -482 3 -483 2 0 185 0 185 513 2 512 3 3 83 3 82
-601 0 -600 0 0 -655z"/>
<path d="M17580 2795 c0 -2 162 -176 360 -386 l360 -382 0 -269 0 -268 85 0
85 0 0 268 1 267 255 270 c141 149 305 323 366 388 l110 117 -115 0 -116 0
-288 -302 c-158 -167 -290 -304 -293 -306 -4 -1 -136 135 -294 303 l-287 305
-114 0 c-63 0 -115 -2 -115 -5z"/>
<path d="M19372 2148 l3 -653 603 -3 602 -2 0 23 c0 13 3 52 6 86 l7 61 -522
0 -521 0 0 216 0 216 483 -3 482 -4 3 83 3 82 -208 0 c-114 0 -333 3 -485 7
l-278 6 0 184 0 183 513 2 512 3 0 80 0 80 -603 3 -602 2 2 -652z"/>
<path d="M20900 2146 l0 -656 90 0 90 0 0 275 0 275 318 0 c336 0 423 -8 486
-43 69 -39 77 -59 87 -208 8 -124 23 -205 48 -271 l11 -28 105 0 c58 0 105 3
105 6 0 4 -14 29 -31 57 -46 75 -50 91 -60 235 -11 168 -35 236 -106 301 l-48
45 61 60 c82 82 108 149 101 257 -6 90 -30 150 -83 208 -50 56 -104 86 -200
113 -75 21 -103 22 -526 26 l-448 3 0 -655z m951 456 c167 -67 184 -252 31
-335 -90 -49 -156 -57 -494 -57 l-308 0 0 211 0 210 358 -3 c341 -3 359 -4
413 -26z"/>
</g>
</svg>
