<svg xmlns="http://www.w3.org/2000/svg" title="Reserva" width="160" height="23" viewBox="0 0 160 23" fill="none">
<path fill-rule="evenodd" clip-rule="evenodd" d="M10.7942 0C17.7699 0 22.4204 2.53856 22.4204 6.74106C22.4204 8.72497 20.8845 10.6662 18.5592 12.0742C20.3938 15.3594 22.3777 18.3032 25.1083 21.8444H23.359C17.5139 21.8444 14.3781 19.5619 11.6902 14.0581C11.4982 14.0794 11.2849 14.0794 11.0929 14.0794C10.9009 14.0794 10.7089 14.0794 10.5169 14.0581V19.0499L13.7594 21.8658H0L3.09321 19.0499V3.02921L0 0H10.7942ZM10.4956 11.8182H10.6662C13.7168 11.8182 14.7407 10.0903 14.7407 7.10371C14.7407 3.62652 13.5674 2.09058 10.4956 1.7066V11.8182ZM139.514 18.8803C138.96 18.8803 138.618 18.5817 138.618 18.027V11.222C138.618 5.93151 135.034 4.13958 130.107 4.13958C125.414 4.13958 121.659 6.2515 121.659 8.72606C121.659 10.262 122.875 10.9233 124.347 10.9233C126.16 10.9233 127.504 10.3047 128.357 9.4087C127.632 8.72606 127.269 7.87276 127.269 7.21146C127.269 6.29416 127.76 5.67552 128.741 5.67552C130.491 5.67552 132.048 7.48878 132.048 10.1127V10.5393C124.134 11.7553 121.147 14.9338 121.147 18.027C121.147 20.7576 123.174 22.3575 125.712 22.3575C127.952 22.3575 130.405 21.1202 131.792 18.219H131.899V18.603C131.899 21.4615 133.605 22.3362 135.504 22.3362C137.936 22.3362 140.325 20.8002 141.477 18.3683C140.88 18.6456 140.261 18.8803 139.514 18.8803ZM132.091 14.4432C132.091 16.8111 131.067 17.7284 129.765 17.7284C128.656 17.7284 127.739 16.6404 127.739 15.1685C127.739 13.8245 128.635 12.9712 129.915 12.9712C130.832 12.9712 131.621 13.2699 132.112 13.5899V14.4432H132.091ZM113.382 4.5875C114.662 5.18481 115.387 6.12344 115.387 7.70204C115.387 9.15265 114.918 10.8806 114.065 12.6298L112.891 15.0191L111.803 12.9925C110.843 11.2432 109.862 9.3873 109.862 7.70204C109.862 6.1661 110.587 5.20614 111.739 4.5875H99.3666C100.26 5.32303 101.239 7.1512 102.045 8.6557C102.221 8.98386 102.388 9.29663 102.545 9.5793L110.097 22.8694L117.52 9.87795C118.608 7.97936 119.91 5.93145 121.467 4.5875H113.382ZM31.508 14.1648L41.1929 10.8156C41.0009 7.1038 37.9717 4.18125 33.3213 4.18125C28.8628 4.18125 24.7883 7.91443 24.7883 13.3115C24.7883 19.178 29.6734 22.4632 34.0466 22.4632C37.6944 22.4632 41.4063 20.2019 42.0249 15.5728C40.937 16.5327 39.2944 17.1514 37.4598 17.1514C34.9639 17.13 32.8946 15.8714 31.508 14.1648ZM31.5933 7.08246C32.788 7.08246 34.3026 8.23442 35.1132 10.5383L30.612 12.7569C30.0787 11.7329 29.7801 10.6237 29.7801 9.57836C29.7801 7.91443 30.5694 7.08246 31.5933 7.08246ZM52.4138 6.20883C51.0485 6.20883 50.2379 6.76348 50.2379 7.72344C50.2379 9.00884 51.8974 9.59172 53.8575 10.2802C56.6791 11.2712 60.1236 12.481 60.1362 16.3204C60.1362 19.9896 57.4056 22.3148 51.7952 22.4215C49.5553 22.4642 46.5687 22.1655 44.8621 21.2482L43.7742 15.5951C46.8247 19.0936 49.6193 20.1816 51.5178 20.1816C52.8831 20.1816 53.6938 19.6269 53.6938 18.539C53.6938 17.3273 52.071 16.7263 50.1614 16.0192C47.4315 15.0083 44.1155 13.7803 44.1155 10.2407C44.1155 6.69948 47.422 4.13958 52.3498 4.13958C54.9097 4.13958 56.8723 4.63023 58.2162 5.12088L58.9415 10.518C56.723 7.12613 54.0777 6.20883 52.4138 6.20883ZM68.8398 14.1648L78.5247 10.8156C78.3327 7.1038 75.3035 4.18125 70.653 4.18125C66.1946 4.18125 62.1201 7.91443 62.1201 13.3115C62.1201 19.178 67.0052 22.4632 71.3783 22.4632C75.0262 22.4632 78.738 20.2019 79.3567 15.5728C78.2687 16.5327 76.6261 17.1514 74.7915 17.1514C72.2956 17.13 70.2264 15.8714 68.8398 14.1648ZM68.9251 7.08246C70.1197 7.08246 71.6343 8.23442 72.445 10.5383L67.9438 12.7569C67.4105 11.7329 67.1119 10.6237 67.1119 9.57836C67.1119 7.91443 67.9012 7.08246 68.9251 7.08246ZM89.6177 4.39375C96.4867 4.39375 98.9186 6.05768 98.9186 9.08689C98.9186 10.9428 97.5107 12.0948 95.5268 12.7561L101.159 21.865H99.4093C94.5668 21.865 92.4976 20.5211 89.6603 15.0386H89.191H88.7004V19.0065L91.3029 21.865H79.4848L82.3433 19.1131V7.61495L79.4634 4.39375H89.6177ZM88.7217 13.2254H88.8497C91.5376 13.2254 92.3909 11.6255 92.3909 9.57754C92.3909 7.74295 91.4096 5.84436 88.7217 6.03635V13.2254Z" fill="black"/>
<path d="M159.482 20.4148C159.162 20.1588 157.669 19.1775 156.943 18.5376C156.666 18.2816 156.858 18.0042 156.559 17.6843C156.154 17.3003 155.727 16.8736 155.279 16.4256C154.831 15.9563 154.405 15.4444 153.978 14.911C153.594 14.3777 152.421 12.7565 151.461 11.6898C150.437 10.5379 148.496 9.12995 147.962 7.82867C147.941 7.74334 147.898 7.65801 147.877 7.57268C147.749 7.16736 147.706 6.69805 147.728 6.1434C147.749 5.61009 147.898 5.09811 148.474 4.20215C149.114 3.24219 148.986 2.81554 148.773 2.77288C148.56 2.73021 148.325 2.75154 148.56 1.74892C148.773 0.874288 148.624 0.511636 148.496 0.298311C148.368 0.0849869 148.218 -0.0216753 148.09 0.0209896C147.813 0.084987 147.6 0.724961 147.344 0.89562C147.28 0.938285 146.917 1.13028 147.002 0.319644C147.024 0.127652 146.896 0.0636545 146.704 0.170317C146.426 0.340976 146.042 0.788958 145.829 1.62092C145.808 1.66359 145.765 1.68492 145.744 1.62092C145.701 1.51426 145.701 1.32227 145.765 1.00228C145.829 0.703628 145.957 0.447639 145.829 0.426306C145.658 0.383641 145.402 0.746293 145.21 1.17294C145.189 1.23694 145.168 1.25827 145.146 1.30094C145.125 1.3436 145.061 1.38627 145.061 1.2796C145.061 1.21561 145.082 1.08761 145.125 0.938285C145.146 0.874288 145.104 0.852955 145.082 0.852955C145.018 0.831623 144.954 0.874288 144.869 0.938285C144.677 1.08761 144.485 1.3436 144.336 1.70625C144.314 1.74892 144.314 1.79158 144.293 1.83425V1.85558C144.293 1.87691 144.293 1.87691 144.272 1.89825C144.272 1.91958 144.25 1.94091 144.25 1.96224C144.25 1.98358 144.229 2.02624 144.229 2.04757V2.0689C144.208 2.11157 144.208 2.17557 144.186 2.23956C144.165 2.30356 144.165 2.36756 144.165 2.43156C144.165 2.43156 144.165 2.43156 144.165 2.45289C144.144 2.62355 144.144 2.77288 144.144 2.94354C144.144 2.96487 144.144 2.9862 144.144 3.02887C144.144 3.1142 143.93 3.13553 143.994 3.32752C144.101 3.81817 144.293 4.30881 144.378 4.5648C144.421 4.65013 144.357 4.75679 144.272 4.79946C143.824 4.92745 142.586 5.31144 141.733 5.84475C141.691 5.86608 141.648 5.95141 141.691 6.01541C141.733 6.07941 141.84 6.07941 141.883 6.05807C142.864 5.73809 144.272 5.26877 144.954 5.75942C145.445 6.12207 145.509 6.97537 145.189 7.89266C145.082 8.23398 144.976 8.53264 144.869 8.85263C143.418 12.6498 146.085 14.4204 148.517 16.6816C148.688 16.8523 149.072 17.2576 149.392 17.7483C149.626 18.0896 149.882 18.4949 149.84 18.8789C149.818 19.1989 149.776 19.5828 149.648 20.0948C149.52 20.7135 149.37 20.4148 148.389 20.1588C148.09 20.0735 148.069 20.1162 147.877 20.5215C147.685 20.9481 147.664 20.9908 147.706 21.0335C147.749 21.0548 149.562 21.0548 149.776 21.0761C149.797 21.0761 149.84 21.0975 149.861 21.0975C150.074 21.2041 151.077 21.6734 151.375 21.8868C151.439 21.9294 151.546 21.9081 151.589 21.8654C151.631 21.8014 151.61 21.7161 151.546 21.6734C151.098 21.3961 150.181 20.7135 150.16 20.5001C150.16 20.4148 150.224 20.1162 150.266 19.8815C150.437 18.8149 150.458 18.4309 150.885 18.2176C151.29 18.0256 152.229 18.5162 152.954 18.6869C152.997 18.6869 153.018 18.7296 152.997 18.7509C152.975 18.8575 152.911 19.1135 152.783 19.5189C152.762 19.5828 152.719 19.7108 152.591 19.7535C152.442 19.7962 151.823 19.5615 151.397 19.4762C151.226 19.4335 151.162 19.3269 150.778 20.1588C150.757 20.2228 150.757 20.2442 150.778 20.2442C150.799 20.2655 152.527 20.3508 152.783 20.3935C152.826 20.3935 152.869 20.4148 152.911 20.4361C153.551 20.7561 154.085 21.0335 154.426 21.2254C154.618 21.3321 154.682 21.3748 154.746 21.3108C154.831 21.2254 154.746 21.1401 154.682 21.0761C154.639 21.0335 154.255 20.7561 153.871 20.5001C153.509 20.2442 153.167 20.0735 153.167 19.9455C153.167 19.8815 153.21 19.6682 153.231 19.6042C153.253 19.5615 153.381 19.0709 153.423 18.9002C153.423 18.8575 153.466 18.8362 153.509 18.8575C155.365 19.4762 155.941 20.6708 157.349 21.4174C159.055 22.2921 160.932 21.5454 159.482 20.4148Z" fill="#E4002B"/>
</svg>
