<svg width="110" height="32" viewBox="0 0 110 32" fill="none" xmlns="http://www.w3.org/2000/svg">
<g clip-path="url(#clip0_8_1582)">
<path d="M23.7272 5.91104C23.7059 5.75602 23.5704 5.67001 23.458 5.66065C23.3465 5.65129 21.1611 5.61808 21.1611 5.61808C21.1611 5.61808 19.3334 3.84322 19.1529 3.66267C18.9724 3.48212 18.6198 3.53662 18.4827 3.5775C18.481 3.57836 18.1395 3.68396 17.5646 3.86196C17.4684 3.55025 17.3269 3.167 17.1251 2.78205C16.4745 1.54034 15.5215 0.883709 14.37 0.882011C14.3683 0.882011 14.3674 0.882011 14.3657 0.882011C14.2857 0.882011 14.2065 0.889675 14.1265 0.896485C14.0924 0.855606 14.0583 0.815581 14.0225 0.776401C13.5209 0.239859 12.8779 -0.0216 12.1072 0.00139476C10.6202 0.0439776 9.13916 1.11792 7.93832 3.02563C7.09347 4.36784 6.45045 6.05414 6.26821 7.35972C4.56063 7.88859 3.3666 8.25819 3.3402 8.26673C2.47832 8.53753 2.45107 8.56394 2.33865 9.37645C2.25519 9.99046 0 27.429 0 27.429L18.8991 30.6977L27.0903 28.6613C27.0903 28.6613 23.7484 6.06607 23.7272 5.91104ZM16.6184 4.15492C16.1832 4.28949 15.6884 4.44279 15.1518 4.60886C15.1408 3.856 15.0513 2.80846 14.7005 1.90314C15.8289 2.11691 16.3842 3.39355 16.6184 4.15492ZM14.163 4.91545C13.1726 5.22203 12.0918 5.55674 11.0077 5.89232C11.3126 4.72468 11.8908 3.56217 12.6011 2.79994C12.8651 2.51634 13.2347 2.20037 13.6725 2.01982C14.0838 2.87829 14.1733 4.09361 14.163 4.91545ZM12.1369 0.991018C12.4861 0.983354 12.78 1.06001 13.0312 1.22523C12.6292 1.43388 12.2409 1.73367 11.8764 2.12458C10.9319 3.13805 10.2079 4.71106 9.91924 6.22871C9.01903 6.50719 8.13841 6.7806 7.32764 7.031C7.83952 4.64208 9.84173 1.05745 12.1369 0.991018Z" fill="#95BF47"/>
<path d="M23.4588 5.66154C23.3473 5.65217 21.1619 5.61897 21.1619 5.61897C21.1619 5.61897 19.3343 3.8441 19.1538 3.66355C19.0865 3.59627 18.9954 3.56135 18.8999 3.54688L18.9008 30.6969L27.0912 28.6614C27.0912 28.6614 23.7493 6.06695 23.728 5.91193C23.7067 5.7569 23.5704 5.6709 23.4588 5.66154Z" fill="#5E8E3E"/>
<path d="M14.3598 9.87294L13.4085 13.432C13.4085 13.432 12.3473 12.9491 11.0894 13.0283C9.2447 13.145 9.22511 14.3083 9.24389 14.6005C9.34437 16.1922 13.5319 16.5397 13.767 20.2682C13.9518 23.2014 12.211 25.2079 9.70292 25.3663C6.69229 25.5562 5.03497 23.7805 5.03497 23.7805L5.67288 21.0671C5.67288 21.0671 7.34124 22.3259 8.67664 22.2415C9.54876 22.1862 9.86045 21.4768 9.82893 20.9751C9.6978 18.8988 6.28775 19.0214 6.0723 15.6097C5.89088 12.7388 7.77648 9.8295 11.9368 9.56719C13.5396 9.46415 14.3598 9.87294 14.3598 9.87294Z" fill="white"/>
<path d="M37.8769 17.3257C36.9351 16.8146 36.451 16.3838 36.451 15.7917C36.451 15.0382 37.1234 14.5541 38.1734 14.5541C39.3957 14.5541 40.4871 15.0652 40.4871 15.0652L41.3478 12.428C41.3478 12.428 40.5563 11.8088 38.2266 11.8088C34.9846 11.8088 32.7377 13.6655 32.7377 16.2757C32.7377 17.7556 33.7868 18.8858 35.1865 19.6925C36.3167 20.3379 36.7205 20.7957 36.7205 21.4681C36.7205 22.1676 36.1554 22.7327 35.1063 22.7327C33.5427 22.7327 32.0661 21.9251 32.0661 21.9251L31.1513 24.5623C31.1513 24.5623 32.5155 25.4771 34.8106 25.4771C38.1472 25.4771 40.542 23.8358 40.542 20.876C40.5411 19.2896 39.3307 18.1594 37.8769 17.3257Z" fill="white"/>
<path d="M51.1694 11.7826C49.528 11.7826 48.2365 12.5631 47.2414 13.7466L47.1873 13.7195L48.6132 6.2666H44.8999L41.2946 25.2355H45.008L46.2455 18.7514C46.7295 16.3026 47.994 14.7965 49.1783 14.7965C50.012 14.7965 50.3356 15.3616 50.3356 16.1692C50.3356 16.6802 50.2815 17.2994 50.1742 17.8105L48.7754 25.2363H52.4889L53.9414 17.568C54.1031 16.7604 54.2111 15.7924 54.2111 15.1462C54.2095 13.0471 53.1065 11.7826 51.1694 11.7826Z" fill="white"/>
<path d="M62.6044 11.7825C58.1373 11.7825 55.1786 15.8185 55.1786 20.3116C55.1786 23.1903 56.9539 25.504 60.2908 25.504C64.6765 25.504 67.6362 21.5761 67.6362 16.9749C67.6362 14.3116 66.0752 11.7825 62.6044 11.7825ZM60.7748 22.6531C59.51 22.6531 58.9718 21.5769 58.9718 20.2313C58.9718 18.106 60.0754 14.6351 62.0932 14.6351C63.4117 14.6351 63.8415 15.7653 63.8415 16.8685C63.8415 19.1551 62.7394 22.6531 60.7748 22.6531Z" fill="white"/>
<path d="M77.1341 11.7825C74.6276 11.7825 73.2053 13.9889 73.2053 13.9889H73.1521L73.3675 11.9979H70.0849C69.9237 13.3435 69.627 15.3877 69.3317 16.9217L66.7485 30.5089H70.4619L71.4837 25.02H71.565C71.565 25.02 72.3268 25.504 73.7445 25.504C78.1031 25.504 80.9549 21.038 80.9549 16.5171C80.9549 14.0159 79.8513 11.7825 77.1341 11.7825ZM73.5824 22.7063C72.6184 22.7063 72.048 22.1682 72.048 22.1682L72.6671 18.6973C73.0978 16.3836 74.3084 14.8496 75.6002 14.8496C76.7304 14.8496 77.0798 15.8988 77.0798 16.8947C77.0798 19.2894 75.6539 22.7063 73.5824 22.7063Z" fill="white"/>
<path d="M86.2554 6.45508C85.072 6.45508 84.1301 7.39693 84.1301 8.60739C84.1301 9.71062 84.8295 10.4641 85.8788 10.4641H85.9325C87.0898 10.4641 88.0849 9.68355 88.1121 8.31178C88.1121 7.23557 87.3856 6.45508 86.2554 6.45508Z" fill="white"/>
<path d="M81.0629 25.2355H84.7752L87.3052 12.0791H83.5647L81.0629 25.2355Z" fill="white"/>
<path d="M96.7494 12.0521H94.1662L94.3002 11.4329C94.5156 10.1684 95.2692 9.03814 96.5069 9.03814C97.1674 9.03814 97.6903 9.22652 97.6903 9.22652L98.4168 6.32073C98.4168 6.32073 97.7711 5.99805 96.3984 5.99805C95.0799 5.99805 93.7625 6.37476 92.7664 7.23552C91.5016 8.31173 90.9097 9.87189 90.6139 11.4329L90.507 12.0521H88.7844L88.2461 14.8506H89.9688L88.0046 25.2364H91.718L93.6822 14.8506H96.2383L96.7494 12.0521Z" fill="white"/>
<path d="M105.682 12.0792C105.682 12.0792 103.361 17.9271 102.318 21.1193H102.264C102.194 20.0913 101.349 12.0792 101.349 12.0792H97.4477L99.682 24.1594C99.7362 24.4281 99.7091 24.5903 99.6012 24.7786C99.1699 25.6124 98.4439 26.4199 97.5828 27.0121C96.8834 27.5231 96.1032 27.8458 95.4846 28.0612L96.5069 31.2094C97.2605 31.0481 98.8204 30.4289 100.139 29.1914C101.834 27.6042 103.394 25.1554 105.009 21.8187L109.556 12.0784H105.682V12.0792Z" fill="white"/>
</g>
<defs>
<clipPath id="clip0_8_1582">
<rect width="110" height="31.2093" fill="white"/>
</clipPath>
</defs>
</svg>
