<svg width="100" height="36" viewBox="0 0 100 36" fill="none" xmlns="http://www.w3.org/2000/svg">
<g clip-path="url(#clip0_8_1536)">
<path d="M72.2788 13.4668H68.6938V25.7385C68.6921 25.9698 68.5049 26.1569 68.2736 26.1587H65.5126C65.2813 26.1569 65.0942 25.9698 65.0924 25.7385V13.4668H61.4811C61.3718 13.4712 61.2653 13.4311 61.1861 13.3556C61.1069 13.2801 61.0617 13.1757 61.0609 13.0663V10.893C61.0616 10.7835 61.1069 10.6791 61.1861 10.6036C61.2653 10.5281 61.3718 10.488 61.4811 10.4924H72.2722C72.505 10.4813 72.703 10.6603 72.7154 10.893V13.0663C72.703 13.2963 72.509 13.4743 72.2788 13.4668Z" fill="#FF3366"/>
<path d="M83.7756 26.0766C82.3623 26.2788 80.9354 26.3709 79.5078 26.3524C76.7862 26.3524 74.3831 25.6564 74.3831 21.8186V14.8161C74.3831 10.9783 76.8092 10.3053 79.5275 10.3053C80.9441 10.2859 82.3601 10.377 83.7625 10.5778C84.058 10.6205 84.1827 10.7255 84.1827 10.998V12.9678C84.1811 13.1991 83.9939 13.3862 83.7625 13.388H79.3305C78.3456 13.388 77.9812 13.7163 77.9812 14.8226V16.7399H83.6082C83.8396 16.7417 84.0267 16.9288 84.0284 17.1601V19.1627C84.0268 19.394 83.8396 19.5811 83.6082 19.5829H77.9812V21.8186C77.9812 22.9151 78.3391 23.2533 79.3305 23.2533H83.7756C84.007 23.255 84.1941 23.4421 84.1959 23.6735V25.6432C84.1991 25.9059 84.0711 26.0339 83.7756 26.0766Z" fill="#FF3366"/>
<path d="M99.6848 26.1588H96.3329C96.0992 26.1762 95.8797 26.0448 95.7847 25.8305L92.876 21.2344L90.2496 25.7451C90.1019 25.9979 89.9542 26.1654 89.7211 26.1654H86.6088C86.5273 26.18 86.4435 26.1576 86.3801 26.1044C86.3167 26.0511 86.2802 25.9724 86.2805 25.8896C86.2848 25.838 86.2993 25.7878 86.3232 25.7419L90.8964 18.1287L86.2805 10.8931C86.2567 10.8542 86.2421 10.8104 86.2379 10.765C86.2535 10.5988 86.3997 10.476 86.5661 10.4893H89.9607C90.1938 10.4893 90.3612 10.6994 90.4893 10.8898L93.1879 15.1576L95.8142 10.8898C95.9094 10.6739 96.1092 10.5225 96.3428 10.4893H99.4649C99.6313 10.476 99.7775 10.5988 99.7932 10.765C99.7889 10.8104 99.7743 10.8542 99.7505 10.8931L95.1544 18.1714L99.9376 25.7222C99.9746 25.7863 99.9959 25.8583 100 25.9323C99.9606 26.0767 99.8523 26.1588 99.6848 26.1588Z" fill="#FF3366"/>
<path d="M56.0117 10.535C55.8542 10.5315 55.7165 10.6403 55.6834 10.7944L52.6204 22.1271C52.5778 22.3602 52.5154 22.4554 52.325 22.4554C52.1346 22.4554 52.0722 22.3701 52.0295 22.1271L48.9764 10.7944C48.9433 10.6403 48.8055 10.5315 48.6481 10.535H45.6343C45.5331 10.5325 45.4365 10.5768 45.3723 10.6551C45.3082 10.7334 45.2837 10.8368 45.306 10.9355C45.306 10.9355 49.0453 23.9262 49.0847 24.0673C49.5837 25.6169 50.7951 26.3654 52.3348 26.3654C53.812 26.4184 55.1424 25.4777 55.5849 24.0673C55.644 23.8901 59.3012 10.9355 59.3012 10.9355C59.3223 10.8373 59.2973 10.7348 59.2333 10.6574C59.1693 10.5799 59.0734 10.536 58.9729 10.5383L56.0117 10.535Z" fill="#FF3366"/>
<path d="M38.9305 0.000134485H7.50611C6.369 0.0105305 5.3193 0.612127 4.73552 1.588C4.15174 2.56387 4.11807 3.77327 4.64666 4.78011L7.79172 10.7682H2.09252C1.3644 10.755 0.683646 11.128 0.303034 11.7489C-0.0775784 12.3698 -0.101203 13.1457 0.240933 13.7885L10.3524 32.8953C10.7153 33.5815 11.4278 34.0107 12.204 34.0107C12.9802 34.0107 13.6928 33.5815 14.0556 32.8953L16.8001 27.7181L20.2472 34.238C20.8077 35.2965 21.9073 35.9585 23.1051 35.9585C24.3028 35.9585 25.4024 35.2965 25.9629 34.238L41.721 4.6094C42.2428 3.63417 42.2115 2.45606 41.6387 1.50992C41.0659 0.563775 40.0365 -0.0100942 38.9305 0.000134485ZM24.8893 12.518L17.9951 25.4463C17.7583 25.8928 17.2941 26.172 16.7887 26.172C16.2832 26.172 15.819 25.8928 15.5822 25.4463L8.77661 12.6428C8.56664 12.2488 8.5789 11.7734 8.80891 11.3908C9.03891 11.0081 9.4529 10.7742 9.89938 10.7748H23.8257C24.2453 10.7683 24.637 10.9843 24.8556 11.3425C25.0742 11.7007 25.087 12.1478 24.8893 12.518Z" fill="#FF3366"/>
</g>
<defs>
<clipPath id="clip0_8_1536">
<rect width="100" height="35.9585" fill="white"/>
</clipPath>
</defs>
</svg>
